<svg width="58" height="96" version="1.1" viewBox="0 0 15.282 25.4" xmlns="http://www.w3.org/2000/svg">
 <title>Marker</title>
 <g transform="translate(-2.508e-8 -271.6)">
  <path d="m7.6411 271.78c-4.1185-3e-5 -7.4572 3.4896-7.4571 7.7942 0.002882 3.1934 1.8693 6.062 4.7098 7.2386 2.1054 3.9755 2.9535 10.158 2.9535 10.158s0.71843-6.2037 3.131-10.212c2.5243-1.3202 4.119-4.2342 4.12-7.1845 3e-5 -4.3046-3.3387-7.7943-7.4571-7.7942z" fill="#2c7a7b" stroke="#234e52" stroke-opacity=".985" stroke-width=".36785"/>
 </g>
 <g transform="translate(-2.508e-8 -271.6)">
  <path transform="matrix(.10015 .026834 -.026834 .10015 .38489 266.19)" d="m123.63 115.22c-21.158 36.646 2.5849 30.284-34.061 9.1267-36.646-21.158-30.284 2.5849-9.1267-34.061 21.158-36.646-2.5849-30.284 34.061-9.1267 36.646 21.158 30.284-2.5849 9.1267 34.061z" fill="#234e52"/>
 </g>
</svg>
